<svg xmlns="http://www.w3.org/2000/svg" width="267" height="160" fill="none">
  <g fill="#fff" clip-path="url(#a)">
    <path d="M99.25 108.97V83.78H95.8v10.09H83.7V83.78h-3.44v25.19h3.44V96.93h12.1v12.04h3.45Zm18.39-16-4.97 9.88-5.33-9.88h-3.84l7.4 13.21-6.4 11.82h3.77l13.1-25.03h-3.73Zm22.96 16v-26.5h-3.32v12.85l-.5-.5a7.03 7.03 0 0 0-10.52.11 8.62 8.62 0 0 0-2.19 6c0 2.44.74 4.5 2.19 6.13a7.2 7.2 0 0 0 5.52 2.39c1.85 0 3.54-.72 5.01-2.14l.49-.47v2.13h3.32Zm-4.48-3.91a4.79 4.79 0 0 1-3.71 1.56 4.57 4.57 0 0 1-3.57-1.61 6.05 6.05 0 0 1-1.37-4.1 5.8 5.8 0 0 1 1.4-3.94 4.62 4.62 0 0 1 3.57-1.6c1.5 0 2.73.53 3.67 1.57a5.95 5.95 0 0 1 1.41 4.06c0 1.63-.47 3-1.4 4.06Zm17.41-9.44c.67 0 1.36.22 2.05.66l1.5-2.96a5.93 5.93 0 0 0-2.82-.8c-.72 0-1.36.12-1.88.39-.52.26-1.13.75-1.82 1.46l-.5.51v-1.9h-3.3v15.99h3.3v-8.3c0-3.35 1.17-5.05 3.47-5.05Zm5.5 5.3c0 2.44.73 4.5 2.19 6.13a7.25 7.25 0 0 0 10.53.25l.49-.44v2.1h3.32v-16h-3.32v2.35l-.5-.5a7.1 7.1 0 0 0-10.53.1 8.66 8.66 0 0 0-2.18 6Zm4.8-3.95a4.63 4.63 0 0 1 3.57-1.6c1.5 0 2.73.53 3.67 1.57a5.95 5.95 0 0 1 1.41 4.06c0 1.63-.47 3-1.4 4.06a4.8 4.8 0 0 1-3.71 1.56 4.57 4.57 0 0 1-3.57-1.61 6.05 6.05 0 0 1-1.38-4.1 5.8 5.8 0 0 1 1.41-3.94Zm6.72-31.61c0-.01 0-.04.02-.03.45.22 3.43 1.94 3.89 2.3.4.32-1.3.89-1.5.77-.2-.1-2.1-2.62-2.4-3.04Z"/>
    <path d="M193.64 71.09c-12.13-14-22.79-20.04-37.35-29.03a.38.38 0 0 0-.48.07l-.34.39a.42.42 0 0 0 0 .54l6.32 7.15c.25.29 0 .75-.37.67-13.93-3.13-23.03-.03-32.45 8.17-10.66 9.28-14.74 13.07-30.28 13.96-15.54.9-18.82-2.51-18.95-1.75-.12.75 12.4 8.21 25.23 8.19 4.34 0 12.17-.12 20.36-3.46 10.1-5.78 20.93-19.1 33.67-16.76.33.06.54-.33.32-.58l-5.48-6.2a.36.36 0 0 1 0-.47l.3-.33c.1-.12.28-.15.42-.07 11.55 7.14 20.27 12.14 29.73 22.24a6.4 6.4 0 0 0 2.28-.5c3.03-1.2 2.92-.3 6.9-1.59.27-.08.36-.43.17-.64Zm-15.96-9.72c-.22-.12-2.3-2.9-2.64-3.36 0-.02.01-.04.03-.03.48.24 3.53 1.78 4.25 2.54.27.28-1.4.97-1.64.85Z"/>
    <path d="M182.62 83.87c-9.9-11.42-18.6-16.35-30.48-23.69a.31.31 0 0 0-.4.06l-.28.32a.34.34 0 0 0 0 .44l5.16 5.83c-2.14-.43-5.4.36-5.4.36-4.77 1.1-8.55 1.7-13.63 1.27a116 116 0 0 1-17.99-4.04c-28.77-8.7-40.57 7.3-39.83 6.84 11.2-6.77 21.72-4.41 37.38 1.95 2.53 1.03 6.53 2.31 9.06 3.03 8.24 2.17 16.32 2.68 23.56 1.28h.02a39.6 39.6 0 0 0 2.57-.6c2.9-.53 3.62-.06 4.19.45.01.01.35.5.09.63-.27.12-.03.08-.65.36-.27.12-.26.5.01.61 2.43.92 10.57 2 15.5 5.73 1.78 1.34 3.27 1.82 5.35 1 2.47-.97 2.38-.24 5.63-1.3.22-.06.3-.35.14-.53Zm-13.58-8.2a45.3 45.3 0 0 1-2.32-2.97c-.01-.01 0-.03.02-.03.43.22 2.97 1.5 3.76 2.25.35.34-1.25.86-1.46.75Z"/>
  </g>
  <defs>
    <clipPath id="a">
      <path fill="#fff" d="M80 42h114v76H80z"/>
    </clipPath>
  </defs>
</svg>
