<svg width="267" height="160" viewBox="0 0 267 160" fill="none" xmlns="http://www.w3.org/2000/svg">
<path d="M95.0172 69.3879H106.264C109.018 69.3879 111.021 69.9362 112.274 71.033C113.528 72.1074 114.154 73.6518 114.154 75.6662C114.154 76.8749 113.841 77.9157 113.214 78.7886C112.588 79.6391 111.737 80.2546 110.663 80.6352C112.05 80.9485 113.147 81.5864 113.953 82.5489C114.759 83.4889 115.162 84.72 115.162 86.242C115.162 88.3012 114.479 89.9239 113.114 91.1102C111.771 92.2965 109.599 92.8896 106.6 92.8896H95.0172V69.3879ZM105.257 88.2564C106.712 88.2564 107.719 88.0438 108.279 87.6185C108.838 87.1709 109.118 86.4882 109.118 85.5705C109.118 84.6528 108.827 83.9702 108.245 83.5225C107.686 83.0749 106.667 82.851 105.19 82.851H101.06V88.2564H105.257ZM104.787 78.755C106.085 78.755 106.958 78.5536 107.406 78.1507C107.876 77.7254 108.111 77.1323 108.111 76.3713C108.111 75.5879 107.876 75.0059 107.406 74.6254C106.958 74.2225 106.097 74.0211 104.821 74.0211H101.06V78.755H104.787ZM117.346 75.0954H122.517V92.8896H117.346V75.0954ZM119.932 73.4167C118.969 73.4167 118.219 73.1705 117.682 72.6781C117.167 72.1633 116.91 71.5142 116.91 70.7308C116.91 69.9474 117.167 69.3095 117.682 68.8171C118.219 68.3023 118.969 68.0449 119.932 68.0449C120.894 68.0449 121.633 68.3023 122.148 68.8171C122.685 69.3095 122.953 69.9474 122.953 70.7308C122.953 71.5142 122.685 72.1633 122.148 72.6781C121.633 73.1705 120.894 73.4167 119.932 73.4167ZM130.756 93.3261C129.794 93.3261 128.932 93.1806 128.171 92.8896C127.433 92.5987 126.806 92.207 126.291 91.7146C125.776 91.1998 125.385 90.6066 125.116 89.9351C124.847 89.2413 124.713 88.4915 124.713 87.6857C124.713 85.9175 125.25 84.5633 126.325 83.6232C127.421 82.6832 129.067 82.2131 131.26 82.2131H136.33V81.4745C136.33 80.4001 136.072 79.6615 135.557 79.2586C135.043 78.8333 134.338 78.6207 133.442 78.6207C132.592 78.6207 131.965 78.755 131.562 79.0236C131.159 79.2922 130.935 79.7175 130.891 80.2994H125.72C125.765 79.4936 125.967 78.755 126.325 78.0835C126.683 77.3897 127.186 76.7965 127.835 76.3041C128.507 75.7893 129.324 75.3864 130.286 75.0954C131.249 74.8045 132.357 74.659 133.61 74.659C134.774 74.659 135.837 74.7933 136.8 75.0619C137.785 75.3081 138.624 75.7222 139.318 76.3041C140.012 76.8637 140.549 77.6023 140.929 78.52C141.31 79.4153 141.5 80.512 141.5 81.8102V88.3572C141.5 89.2972 141.522 90.1254 141.567 90.8416C141.612 91.5355 141.679 92.2182 141.769 92.8896H136.867C136.822 92.5091 136.777 92.1734 136.733 91.8824C136.71 91.5915 136.699 91.2333 136.699 90.8081C136.162 91.5243 135.412 92.1286 134.45 92.6211C133.509 93.0911 132.278 93.3261 130.756 93.3261ZM132.435 89.7001C133.532 89.7001 134.45 89.3868 135.188 88.7601C135.949 88.1333 136.33 87.2716 136.33 86.1749V85.4362H132.267C131.506 85.4362 130.935 85.6377 130.555 86.0406C130.197 86.4434 130.018 86.9135 130.018 87.4507C130.018 88.0998 130.197 88.6369 130.555 89.0622C130.935 89.4875 131.562 89.7001 132.435 89.7001ZM151.407 93.3261C149.952 93.3261 148.699 93.1806 147.647 92.8896C146.617 92.5763 145.767 92.1622 145.095 91.6474C144.424 91.1102 143.92 90.4947 143.584 89.8008C143.249 89.0846 143.058 88.3236 143.014 87.5178H148.184C148.318 88.0326 148.609 88.4691 149.057 88.8272C149.504 89.1853 150.288 89.3644 151.407 89.3644C152.549 89.3644 153.365 89.2077 153.858 88.8943C154.373 88.581 154.63 88.1669 154.63 87.6521C154.63 87.4507 154.574 87.2716 154.462 87.1149C154.35 86.9359 154.138 86.7792 153.824 86.6449C153.533 86.4882 153.13 86.3427 152.616 86.2084C152.101 86.0741 151.441 85.9398 150.635 85.8055C149.65 85.6489 148.721 85.4474 147.848 85.2012C146.975 84.955 146.214 84.6305 145.565 84.2276C144.938 83.8023 144.435 83.2651 144.054 82.616C143.696 81.9669 143.517 81.15 143.517 80.1651C143.517 79.3817 143.696 78.6543 144.054 77.9828C144.412 77.3113 144.927 76.7294 145.599 76.237C146.293 75.7445 147.121 75.364 148.083 75.0954C149.068 74.8045 150.176 74.659 151.407 74.659C152.795 74.659 153.959 74.8269 154.899 75.1626C155.861 75.4983 156.645 75.946 157.249 76.5056C157.853 77.0427 158.301 77.6583 158.592 78.3521C158.883 79.046 159.062 79.751 159.129 80.4673H153.959C153.824 79.8853 153.533 79.4377 153.086 79.1243C152.638 78.7886 152.078 78.6207 151.407 78.6207C150.377 78.6207 149.661 78.7774 149.258 79.0907C148.878 79.4041 148.688 79.7734 148.688 80.1987C148.688 80.6687 149.001 81.038 149.628 81.3066C150.254 81.5528 151.25 81.7655 152.616 81.9445C153.578 82.0788 154.496 82.2691 155.369 82.5153C156.242 82.7615 157.003 83.1084 157.652 83.5561C158.323 83.9814 158.849 84.5297 159.23 85.2012C159.61 85.8503 159.8 86.6449 159.8 87.585C159.8 89.286 159.084 90.6738 157.652 91.7481C156.242 92.8001 154.16 93.3261 151.407 93.3261ZM172.208 93.3261C170.597 93.3261 169.12 93.1135 167.777 92.6882C166.434 92.2406 165.281 91.5355 164.319 90.573C163.378 89.6106 162.64 88.3684 162.103 86.8463C161.565 85.3243 161.297 83.4666 161.297 81.2731V80.6352C161.297 78.5759 161.577 76.8077 162.136 75.3305C162.696 73.8532 163.468 72.6445 164.453 71.7045C165.438 70.7644 166.59 70.0705 167.911 69.6229C169.254 69.1752 170.686 68.9514 172.208 68.9514C173.574 68.9514 174.85 69.1081 176.036 69.4214C177.245 69.7348 178.297 70.2272 179.192 70.8987C180.11 71.5702 180.848 72.4431 181.408 73.5175C181.99 74.5918 182.337 75.9012 182.448 77.4456H176.204C176.092 76.8189 175.913 76.2929 175.667 75.8676C175.42 75.42 175.118 75.0619 174.76 74.7933C174.402 74.5023 173.999 74.3009 173.551 74.1889C173.126 74.0547 172.678 73.9875 172.208 73.9875C171.537 73.9875 170.91 74.1106 170.328 74.3568C169.769 74.5806 169.276 74.9612 168.851 75.4983C168.448 76.0131 168.124 76.6958 167.877 77.5463C167.654 78.3969 167.542 79.4265 167.542 80.6352V81.3402C167.542 82.6384 167.665 83.7351 167.911 84.6305C168.18 85.5034 168.526 86.2196 168.952 86.7792C169.377 87.3164 169.869 87.7081 170.429 87.9543C170.989 88.1781 171.582 88.29 172.208 88.29C173.35 88.29 174.256 88.0214 174.928 87.4842C175.622 86.9247 176.047 86.0406 176.204 84.8319H182.448C182.359 86.3987 182.034 87.7193 181.475 88.7936C180.938 89.868 180.21 90.7409 179.293 91.4124C178.397 92.0839 177.345 92.5763 176.137 92.8896C174.928 93.1806 173.619 93.3261 172.208 93.3261ZM192.687 93.3261C191.434 93.3261 190.259 93.147 189.162 92.7889C188.065 92.4084 187.103 91.8377 186.275 91.0767C185.446 90.3156 184.797 89.3644 184.327 88.2229C183.857 87.059 183.622 85.7048 183.622 84.1604V83.4889C183.622 82.0341 183.857 80.7583 184.327 79.6615C184.797 78.5648 185.446 77.6471 186.275 76.9084C187.103 76.1698 188.065 75.6102 189.162 75.2297C190.259 74.8492 191.434 74.659 192.687 74.659C193.941 74.659 195.116 74.8492 196.213 75.2297C197.309 75.6102 198.272 76.1698 199.1 76.9084C199.928 77.6471 200.577 78.5648 201.047 79.6615C201.517 80.7583 201.752 82.0341 201.752 83.4889V84.1604C201.752 85.6824 201.517 87.0254 201.047 88.1893C200.577 89.3308 199.928 90.2821 199.1 91.0431C198.272 91.8041 197.309 92.3748 196.213 92.7554C195.116 93.1359 193.941 93.3261 192.687 93.3261ZM192.687 89.0286C193.896 89.0286 194.825 88.5922 195.474 87.7193C196.123 86.8463 196.448 85.6601 196.448 84.1604V83.4889C196.448 82.146 196.123 81.0604 195.474 80.2323C194.825 79.3817 193.896 78.9565 192.687 78.9565C191.479 78.9565 190.55 79.3817 189.901 80.2323C189.252 81.0604 188.927 82.146 188.927 83.4889V84.1604C188.927 85.7048 189.252 86.9023 189.901 87.7528C190.55 88.6034 191.479 89.0286 192.687 89.0286ZM203.418 75.0954H208.185V77.5128C208.633 76.7294 209.327 76.0579 210.267 75.4983C211.229 74.9388 212.505 74.659 214.094 74.659C216.221 74.659 217.821 75.2409 218.895 76.4048C219.992 77.5463 220.541 79.1803 220.541 81.3066V92.8896H215.37V82.4817C215.37 81.3178 215.113 80.4449 214.598 79.863C214.106 79.2586 213.289 78.9565 212.147 78.9565C211.52 78.9565 210.983 79.0572 210.535 79.2586C210.088 79.4377 209.719 79.6839 209.428 79.9972C209.137 80.3106 208.924 80.6911 208.79 81.1388C208.655 81.564 208.588 82.0117 208.588 82.4817V92.8896H203.418V75.0954ZM223.746 79.3258H221.731V75.0954H223.746V74.2561C223.746 73.4503 223.858 72.7341 224.082 72.1074C224.305 71.4807 224.686 70.9547 225.223 70.5294C225.76 70.0817 226.465 69.746 227.338 69.5222C228.233 69.2983 229.33 69.1864 230.628 69.1864C230.964 69.1864 231.378 69.1976 231.871 69.22C232.385 69.22 232.811 69.2424 233.146 69.2872V73.5846C232.811 73.5399 232.441 73.5175 232.039 73.5175C231.658 73.4951 231.3 73.4839 230.964 73.4839C230.181 73.4839 229.644 73.607 229.353 73.8532C229.062 74.077 228.916 74.3792 228.916 74.7597V75.0954H232.811V79.3258H228.916V92.8896H223.746V79.3258Z" fill="white"/>
<rect x="33.4355" y="57.2961" width="48.7039" height="48.7039" rx="6.45085" fill="#88DF54"/>
<path d="M41.4991 94.9605C41.1217 94.7032 40.7958 94.3772 40.4698 94.0341C40.041 93.571 39.6464 93.0735 39.3205 92.5417C38.6514 91.4609 38.274 90.2257 38.2225 88.9563C38.2225 88.9391 38.2225 88.922 38.2225 88.8877C38.2054 88.3215 38.3083 87.6868 38.5142 87.1722C38.7029 86.6918 38.9602 86.1772 39.4062 85.8855C39.6292 85.7311 39.938 85.8512 39.9724 86.1257C40.2468 87.7726 40.4184 89.3165 40.8473 90.7918C41.2075 92.027 41.7393 93.1935 42.254 94.3772C42.3054 94.5145 42.7 95.2693 42.4427 95.3722C42.3397 95.4237 42.1682 95.3036 42.0653 95.2693C41.8594 95.1835 41.6707 95.0806 41.4991 94.9605Z" fill="black"/>
<path d="M69.0148 92.7645C68.9977 92.7645 68.9977 92.7645 69.0148 92.7645C69.0148 92.6787 69.0148 92.593 69.032 92.5243C69.032 92.4214 69.0491 92.3185 69.0491 92.2155C69.0491 92.0783 69.0663 91.9582 69.0663 91.821C69.0663 91.6666 69.0834 91.5122 69.0834 91.3578C69.1006 91.1862 69.1006 91.0147 69.1178 90.8431C69.1349 90.6716 69.1349 90.4829 69.1521 90.3113C69.1692 90.1398 69.1692 89.9511 69.1864 89.7795C69.2035 89.608 69.2035 89.4364 69.2207 89.282C69.2207 89.1276 69.2378 88.9733 69.2378 88.8189C69.2378 88.6988 69.255 88.5615 69.255 88.4414C69.255 88.3385 69.2721 88.2528 69.2721 88.1498C69.2721 88.0984 69.2722 88.0297 69.2893 87.9783C69.2893 87.9611 69.2893 87.944 69.2893 87.944C69.2893 87.841 69.4265 87.7896 69.4952 87.8753C70.1471 88.6302 70.8161 89.385 71.468 90.1741C71.5538 90.277 71.5538 90.5515 71.468 90.6373C71.245 90.8603 71.0048 91.1005 70.7646 91.3235C70.5245 91.5465 70.3015 91.7695 70.0613 91.9925C69.8211 92.2155 69.5809 92.4386 69.3579 92.6616C69.3065 92.713 69.255 92.7645 69.2035 92.7988C69.1864 92.816 69.1692 92.8331 69.1521 92.8331H69.1349C69.0835 92.7988 69.0491 92.7817 69.0148 92.7645Z" fill="black"/>
<path d="M57.1612 67.5809C58.688 65.711 61.0382 66.2943 61.8102 68.1127C61.8102 68.3357 61.8274 68.5588 61.8274 68.7989C61.8445 69.9998 61.2784 70.8232 60.1976 71.2349C59.237 71.6123 58.1733 71.3036 57.4528 70.4115C56.7838 69.5194 56.8009 68.5588 57.1612 67.5809Z" fill="white"/>
<path fill-rule="evenodd" clip-rule="evenodd" d="M46.5104 64.2874C46.3217 64.133 46.0129 64.1673 45.8928 64.3903C45.4296 65.1623 45.584 66.0372 46.3045 66.6719C47.0507 67.3753 47.8099 68.07 48.569 68.7648C49.3281 69.4596 50.0872 70.1544 50.8334 70.8577C51.7083 71.6983 51.5539 72.4531 50.4388 72.8648C47.7455 73.8427 45.6526 75.6096 44.0915 77.977C42.0672 81.0649 41.0208 84.4616 41.6898 88.1499C42.7363 93.7939 45.6183 98.3056 50.679 101.153C56.1343 104.224 61.6753 104.224 67.0448 100.93C70.1622 99.0177 73.2257 97.0151 76.2873 95.0137C77.4545 94.2507 78.6214 93.4879 79.791 92.7303C80.8203 92.0612 80.8374 91.8382 79.9797 90.929C78.0755 88.9047 75.4851 88.9219 73.3064 90.9633C71.5195 92.6509 69.7327 94.3066 67.9304 95.9765L67.731 96.1613C67.3708 96.4872 66.9419 96.8303 66.5474 96.3843C66.3415 96.1441 66.3586 95.6123 66.4444 95.252C66.5953 94.6605 66.7759 94.0732 66.9564 93.4865C67.2889 92.4056 67.6208 91.3264 67.7654 90.2256C68.3829 85.4394 64.9519 81.1335 60.1657 80.4645C55.0192 79.744 50.7133 82.8147 49.5468 88.0813C49.4054 88.7127 49.321 89.3493 49.2367 89.9853C49.1675 90.5071 49.0983 91.0286 48.9978 91.5466C48.9807 91.701 48.8263 91.8382 48.6547 91.9755C48.5003 92.1127 48.2773 92.1127 48.1229 91.9755L48.1229 91.9754C47.9513 91.821 47.7798 91.6667 47.7455 91.4951C47.6597 90.9633 47.7112 90.3972 47.7798 89.8654C48.2087 86.28 49.5125 83.1235 52.5146 80.9105C55.6025 78.6461 58.9992 78.4573 62.5502 79.6067C62.6618 79.641 62.7733 79.6711 62.8848 79.7011C62.9963 79.7311 63.1078 79.7611 63.2193 79.7954L63.2021 79.7783C63.1507 79.641 63.1678 79.4695 63.2536 79.3494C63.2796 79.3136 63.3057 79.2776 63.3318 79.2415C63.5808 78.8977 63.8351 78.5465 64.1457 78.2515C64.404 78.0012 64.6927 77.7814 64.9814 77.5615C65.3063 77.3141 65.6311 77.0668 65.9126 76.7762C67.5595 75.0778 68.726 73.1736 68.4172 70.669C67.7482 65.3167 60.8348 61.6798 55.7569 64.0129C53.5147 65.049 53.5095 65.0424 51.9941 63.1437C51.9791 63.1249 51.9639 63.1058 51.9485 63.0865C51.1937 62.143 50.4388 61.2166 49.5811 60.376C48.8091 59.6212 47.4367 59.7413 46.6991 60.4961C45.9614 61.2681 45.9614 62.2802 46.7677 63.1894C47.295 63.7781 47.8487 64.3492 48.4036 64.9216C48.6249 65.1499 48.8464 65.3784 49.0665 65.6083L49.238 65.7798C49.787 66.346 50.3359 66.8949 50.8849 67.4439C50.9361 67.4951 50.9879 67.5463 51.0401 67.5977C51.25 67.8049 51.4645 68.0165 51.6568 68.2502C51.8456 68.456 51.7255 68.7477 51.4853 68.8506C51.228 68.9707 51.005 68.8334 50.8162 68.6447C49.4782 67.2895 48.1401 65.9171 46.802 64.5447C46.7121 64.4548 46.6353 64.3911 46.5488 64.3193C46.5362 64.3088 46.5234 64.2982 46.5104 64.2874Z" fill="black"/>
<ellipse cx="61.8701" cy="70.3381" rx="2.48339" ry="2.06949" transform="rotate(29.3484 61.8701 70.3381)" fill="#88DF54"/>
</svg>
