<svg width="1276" height="350" viewBox="0 0 1276 350" fill="none" xmlns="http://www.w3.org/2000/svg">
<g clip-path="url(#clip0_1000_10539)">
<mask id="mask0_1000_10539" style="mask-type:luminance" maskUnits="userSpaceOnUse" x="0" y="0" width="1276" height="350">
<path d="M0 0H1276V350H0V0Z" fill="white"/>
</mask>
<g mask="url(#mask0_1000_10539)">
<g filter="url(#filter0_f_1000_10539)">
<path d="M789.42 510.21C790.689 510.168 791.937 509.872 793.09 509.34C794.354 508.837 795.493 508.066 796.43 507.08L903.86 389.2C906.599 386.219 908.714 382.721 910.08 378.91C911.444 375.167 912.145 371.214 912.15 367.23C912.15 363.28 911.46 359.33 910.08 355.37C908.743 351.495 906.626 347.935 903.86 344.91L846.48 282.14C843.887 279.305 840.737 277.036 837.227 275.476C833.716 273.915 829.921 273.096 826.08 273.07C822.287 273.107 818.543 273.932 815.086 275.493C811.629 277.055 808.535 279.318 806 282.14L800.26 288.42L826.08 317.02C828.977 320.483 831.439 324.288 833.41 328.35C835.54 332.65 836.61 337.35 836.61 342.47C836.61 351.3 833.47 359.09 827.2 365.83C820.93 372.58 813.75 375.95 805.68 375.95C800.37 375.95 795.96 375.08 792.45 373.33C788.773 371.454 785.477 368.911 782.73 365.83L759.46 340.38L701.76 403.5C700.763 404.548 699.999 405.795 699.52 407.16C699.096 408.451 698.883 409.801 698.89 411.16C698.89 414.19 699.79 416.69 701.59 418.66C702.449 419.623 703.508 420.388 704.693 420.901C705.877 421.414 707.159 421.663 708.45 421.63C709.743 421.625 711.01 421.261 712.11 420.58C713.28 419.88 714.29 419.08 715.14 418.14L759.14 370.02L772.52 384.67L728.85 432.44C727.827 433.536 727.065 434.849 726.62 436.28C726.2 437.634 725.985 439.043 725.98 440.46C725.98 443.26 726.94 445.69 728.85 447.78C729.672 448.758 730.697 449.546 731.854 450.088C733.011 450.631 734.272 450.914 735.55 450.92C736.82 450.92 738.05 450.63 739.21 450.05C740.352 449.489 741.38 448.719 742.24 447.78L786.24 399.66L799.62 414.31L755.95 462.08C755.1 463.01 754.41 464.23 753.88 465.74C753.35 467.25 753.08 468.71 753.08 470.1C753.08 472.9 754.03 475.33 755.95 477.42C757.161 478.87 758.808 479.891 760.645 480.33C762.483 480.77 764.413 480.605 766.15 479.86C767.371 479.277 768.457 478.446 769.34 477.42L813.33 429.3L826.72 443.95L782.72 492.07C781.696 493.165 780.934 494.478 780.49 495.91C780.095 497.149 779.883 498.44 779.86 499.74C779.86 503 780.71 505.56 782.41 507.42C784.11 509.28 786.45 510.2 789.42 510.2V510.21ZM789.42 531.14C782.41 531.14 776.14 528.29 770.62 522.6C765.09 516.9 761.79 509.87 760.73 501.5C753.722 500.453 747.298 496.998 742.56 491.73C737.67 486.39 734.7 479.76 733.63 471.86C726.63 470.818 720.24 467.289 715.63 461.92C710.84 456.45 707.92 449.89 706.86 442.22C699.314 441.228 692.394 437.502 687.41 431.75C682.31 425.95 679.76 418.97 679.76 410.83C679.76 406.88 680.45 402.93 681.83 398.97C683.167 395.095 685.284 391.535 688.05 388.51L759.45 310.4L794.52 348.76C796.107 350.532 797.996 352.009 800.1 353.12C801.912 354.109 803.936 354.644 806 354.68C808.76 354.68 811.36 353.35 813.8 350.68C816.25 348 817.47 345.15 817.47 342.13C817.47 340.73 817.1 339.17 816.36 337.43C815.448 335.434 814.207 333.605 812.69 332.02L767.11 282.15C764.517 279.315 761.367 277.046 757.857 275.486C754.346 273.925 750.551 273.106 746.71 273.08C742.917 273.116 739.173 273.941 735.716 275.503C732.259 277.064 729.164 279.328 726.63 282.15L678.16 335.15C675.372 338.096 673.254 341.61 671.95 345.45C670.73 349.351 670.034 353.396 669.88 357.48C669.66 362.12 670.46 366.6 672.27 370.9C674.07 375.2 676.25 379.1 678.8 382.58L665.1 397.58C660.84 392.46 657.4 386.3 654.73 379.1C652.108 372.072 650.76 364.632 650.75 357.13C650.727 350.275 651.968 343.475 654.41 337.07C656.766 330.831 660.285 325.096 664.78 320.17L712.91 267.5C717.311 262.581 722.758 258.71 728.85 256.17C734.8 253.73 740.85 252.51 747.02 252.51C753.18 252.51 759.19 253.73 765.03 256.17C771.058 258.741 776.446 262.61 780.81 267.5L786.55 273.78L792.29 267.51C796.69 262.587 802.137 258.713 808.23 256.17C814.18 253.73 820.23 252.51 826.4 252.51C832.56 252.51 838.57 253.73 844.41 256.17C850.438 258.742 855.826 262.61 860.19 267.5L917.25 329.93C921.886 334.979 925.463 340.906 927.77 347.36C930.085 353.733 931.273 360.46 931.28 367.24C931.28 373.98 930.11 380.54 927.78 386.94C925.44 393.331 921.862 399.196 917.25 404.2L809.82 521.72C807.184 524.65 803.987 527.024 800.42 528.7C796.977 530.313 793.221 531.146 789.42 531.14Z" fill="url(#paint0_linear_1000_10539)"/>
</g>
<path d="M789.42 510.21C790.689 510.168 791.937 509.872 793.09 509.34C794.354 508.837 795.493 508.066 796.43 507.08L903.86 389.2C906.599 386.219 908.714 382.721 910.08 378.91C911.444 375.167 912.145 371.214 912.15 367.23C912.15 363.28 911.46 359.33 910.08 355.37C908.743 351.495 906.626 347.935 903.86 344.91L846.48 282.14C843.887 279.305 840.737 277.036 837.227 275.476C833.716 273.915 829.921 273.096 826.08 273.07C822.287 273.107 818.543 273.932 815.086 275.493C811.629 277.055 808.535 279.318 806 282.14L800.26 288.42L826.08 317.02C828.977 320.483 831.439 324.288 833.41 328.35C835.54 332.65 836.61 337.35 836.61 342.47C836.61 351.3 833.47 359.09 827.2 365.83C820.93 372.58 813.75 375.95 805.68 375.95C800.37 375.95 795.96 375.08 792.45 373.33C788.773 371.454 785.477 368.911 782.73 365.83L759.46 340.38L701.76 403.5C700.763 404.548 699.999 405.795 699.52 407.16C699.096 408.451 698.883 409.801 698.89 411.16C698.89 414.19 699.79 416.69 701.59 418.66C702.449 419.623 703.508 420.388 704.693 420.901C705.877 421.414 707.159 421.663 708.45 421.63C709.743 421.625 711.01 421.261 712.11 420.58C713.28 419.88 714.29 419.08 715.14 418.14L759.14 370.02L772.52 384.67L728.85 432.44C727.827 433.536 727.065 434.849 726.62 436.28C726.2 437.634 725.985 439.043 725.98 440.46C725.98 443.26 726.94 445.69 728.85 447.78C729.672 448.758 730.697 449.546 731.854 450.088C733.011 450.631 734.272 450.914 735.55 450.92C736.82 450.92 738.05 450.63 739.21 450.05C740.352 449.489 741.38 448.719 742.24 447.78L786.24 399.66L799.62 414.31L755.95 462.08C755.1 463.01 754.41 464.23 753.88 465.74C753.35 467.25 753.08 468.71 753.08 470.1C753.08 472.9 754.03 475.33 755.95 477.42C757.161 478.87 758.808 479.891 760.645 480.33C762.483 480.77 764.413 480.605 766.15 479.86C767.371 479.277 768.457 478.446 769.34 477.42L813.33 429.3L826.72 443.95L782.72 492.07C781.696 493.165 780.934 494.478 780.49 495.91C780.095 497.149 779.883 498.44 779.86 499.74C779.86 503 780.71 505.56 782.41 507.42C784.11 509.28 786.45 510.2 789.42 510.2V510.21ZM789.42 531.14C782.41 531.14 776.14 528.29 770.62 522.6C765.09 516.9 761.79 509.87 760.73 501.5C753.722 500.453 747.298 496.998 742.56 491.73C737.67 486.39 734.7 479.76 733.63 471.86C726.63 470.818 720.24 467.289 715.63 461.92C710.84 456.45 707.92 449.89 706.86 442.22C699.314 441.228 692.394 437.502 687.41 431.75C682.31 425.95 679.76 418.97 679.76 410.83C679.76 406.88 680.45 402.93 681.83 398.97C683.167 395.095 685.284 391.535 688.05 388.51L759.45 310.4L794.52 348.76C796.107 350.532 797.996 352.009 800.1 353.12C801.912 354.109 803.936 354.644 806 354.68C808.76 354.68 811.36 353.35 813.8 350.68C816.25 348 817.47 345.15 817.47 342.13C817.47 340.73 817.1 339.17 816.36 337.43C815.448 335.434 814.207 333.605 812.69 332.02L767.11 282.15C764.517 279.315 761.367 277.046 757.857 275.486C754.346 273.925 750.551 273.106 746.71 273.08C742.917 273.116 739.173 273.941 735.716 275.503C732.259 277.064 729.164 279.328 726.63 282.15L678.16 335.15C675.372 338.096 673.254 341.61 671.95 345.45C670.73 349.351 670.034 353.396 669.88 357.48C669.66 362.12 670.46 366.6 672.27 370.9C674.07 375.2 676.25 379.1 678.8 382.58L665.1 397.58C660.84 392.46 657.4 386.3 654.73 379.1C652.108 372.072 650.76 364.632 650.75 357.13C650.727 350.275 651.968 343.475 654.41 337.07C656.766 330.831 660.285 325.096 664.78 320.17L712.91 267.5C717.311 262.581 722.758 258.71 728.85 256.17C734.8 253.73 740.85 252.51 747.02 252.51C753.18 252.51 759.19 253.73 765.03 256.17C771.058 258.741 776.446 262.61 780.81 267.5L786.55 273.78L792.29 267.51C796.69 262.587 802.137 258.713 808.23 256.17C814.18 253.73 820.23 252.51 826.4 252.51C832.56 252.51 838.57 253.73 844.41 256.17C850.438 258.742 855.826 262.61 860.19 267.5L917.25 329.93C921.886 334.979 925.463 340.906 927.77 347.36C930.085 353.733 931.273 360.46 931.28 367.24C931.28 373.98 930.11 380.54 927.78 386.94C925.44 393.331 921.862 399.196 917.25 404.2L809.82 521.72C807.184 524.65 803.987 527.024 800.42 528.7C796.977 530.313 793.221 531.146 789.42 531.14Z" fill="url(#paint1_linear_1000_10539)"/>
<g filter="url(#filter1_f_1000_10539)">
<path d="M996.18 298.78C997.24 298.78 998.46 298.48 999.85 297.91C1001.12 297.406 1002.26 296.631 1003.19 295.64L1110.62 177.77C1113.36 174.795 1115.48 171.299 1116.84 167.49C1118.2 163.743 1118.9 159.787 1118.91 155.8C1118.91 151.85 1118.22 147.9 1116.84 143.95C1115.51 140.074 1113.39 136.513 1110.62 133.49L1053.24 70.72C1050.65 67.8852 1047.5 65.6163 1043.99 64.0556C1040.48 62.4949 1036.68 61.6759 1032.84 61.65C1029.05 61.6818 1025.3 62.505 1021.84 64.0667C1018.39 65.6285 1015.29 67.8945 1012.76 70.72L1007.02 76.99L1032.84 105.59C1035.74 109.052 1038.2 112.857 1040.17 116.92C1042.32 121.314 1043.41 126.149 1043.36 131.04C1043.36 139.88 1040.22 147.67 1033.96 154.41C1027.69 161.15 1020.51 164.52 1012.44 164.52C1007.12 164.52 1002.71 163.65 999.21 161.91C995.529 160.036 992.229 157.493 989.48 154.41L966.21 128.95L908.51 192.07C907.516 193.119 906.756 194.366 906.28 195.73C905.855 197.024 905.642 198.378 905.65 199.74C905.65 202.76 906.55 205.26 908.35 207.24C909.21 208.202 910.269 208.964 911.454 209.476C912.638 209.987 913.92 210.234 915.21 210.2C916.48 210.2 917.71 209.86 918.87 209.16C919.994 208.5 921.015 207.677 921.9 206.72L965.9 158.59L979.28 173.24L935.61 221.01C934.587 222.106 933.824 223.418 933.38 224.85C932.95 226.25 932.74 227.64 932.74 229.04C932.74 231.82 933.7 234.27 935.61 236.36C936.431 237.339 937.456 238.128 938.613 238.67C939.77 239.213 941.032 239.496 942.31 239.5C943.58 239.5 944.81 239.2 945.97 238.62C947.111 238.061 948.139 237.295 949 236.36L993 188.23L1006.38 202.88L962.71 250.66C961.86 251.59 961.17 252.81 960.63 254.32C960.117 255.717 959.847 257.192 959.83 258.68C959.83 261.47 960.79 263.91 962.71 266C963.921 267.45 965.568 268.471 967.405 268.91C969.243 269.35 971.173 269.185 972.91 268.44C974.131 267.857 975.217 267.026 976.1 266L1020.09 217.88L1033.48 232.52L989.48 280.65C988.458 281.743 987.696 283.052 987.25 284.48C986.83 285.88 986.62 287.16 986.62 288.32C986.62 291.57 987.47 294.13 989.17 295.99C990.87 297.85 993.2 298.78 996.17 298.78H996.18ZM996.18 319.7C989.17 319.7 982.9 316.86 977.38 311.16C971.85 305.46 968.55 298.43 967.48 290.06C960.477 289.013 954.057 285.563 949.32 280.3C944.43 274.95 941.45 268.32 940.39 260.42C933.39 259.378 927 255.849 922.39 250.48C917.59 245.02 914.68 238.45 913.61 230.78C906.068 229.789 899.152 226.067 894.17 220.32C889.07 214.51 886.52 207.53 886.52 199.39C886.52 195.44 887.21 191.49 888.59 187.54C889.926 183.665 892.043 180.105 894.81 177.08L966.21 98.96L1001.28 137.32C1002.87 139.092 1004.76 140.568 1006.86 141.68C1008.67 142.673 1010.7 143.211 1012.76 143.25C1015.52 143.25 1018.12 141.91 1020.57 139.24C1023.01 136.57 1024.23 133.72 1024.23 130.7C1024.23 129.3 1023.86 127.73 1023.12 125.99C1022.2 123.999 1020.96 122.174 1019.45 120.59L973.86 70.72C971.267 67.8852 968.117 65.6163 964.607 64.0556C961.096 62.4949 957.301 61.6759 953.46 61.65C949.667 61.6861 945.923 62.5112 942.466 64.0726C939.009 65.6341 935.914 67.8979 933.38 70.72L884.92 123.72C882.134 126.663 880.015 130.173 878.71 134.01C877.486 137.91 876.787 141.956 876.63 146.04C876.43 150.69 877.22 155.16 879.03 159.47C880.83 163.77 883.01 167.66 885.56 171.15L871.86 186.15C867.6 181.03 864.15 174.87 861.49 167.66C858.867 160.632 857.519 153.192 857.51 145.69C857.51 138.72 858.73 132.03 861.17 125.64C863.525 119.398 867.044 113.659 871.54 108.73L919.67 56.07C924.071 51.1515 929.518 47.2803 935.61 44.74C941.365 42.3302 947.54 41.0829 953.78 41.07C959.94 41.07 965.95 42.29 971.79 44.74C977.818 47.3113 983.206 51.1798 987.57 56.07L993.31 62.35L999.05 56.07C1003.45 51.1449 1008.89 47.2725 1014.99 44.74C1020.75 42.3353 1026.92 41.0882 1033.16 41.07C1039.35 41.0775 1045.47 42.3254 1051.17 44.74C1057.2 47.3139 1062.58 51.182 1066.95 56.07L1124.01 118.49C1128.65 123.541 1132.22 129.472 1134.53 135.93C1136.84 142.299 1138.03 149.023 1138.04 155.8C1138.04 162.522 1136.85 169.192 1134.53 175.5C1132.2 181.894 1128.62 187.763 1124.01 192.77L1016.58 310.29C1013.94 313.217 1010.75 315.587 1007.18 317.26C1003.74 318.872 999.981 319.705 996.18 319.7Z" fill="url(#paint2_linear_1000_10539)"/>
</g>
<path d="M996.18 298.78C997.24 298.78 998.46 298.48 999.85 297.91C1001.12 297.406 1002.26 296.631 1003.19 295.64L1110.62 177.77C1113.36 174.795 1115.48 171.299 1116.84 167.49C1118.2 163.743 1118.9 159.787 1118.91 155.8C1118.91 151.85 1118.22 147.9 1116.84 143.95C1115.51 140.074 1113.39 136.513 1110.62 133.49L1053.24 70.72C1050.65 67.8852 1047.5 65.6163 1043.99 64.0556C1040.48 62.4949 1036.68 61.6759 1032.84 61.65C1029.05 61.6818 1025.3 62.505 1021.84 64.0667C1018.39 65.6285 1015.29 67.8945 1012.76 70.72L1007.02 76.99L1032.84 105.59C1035.74 109.052 1038.2 112.857 1040.17 116.92C1042.32 121.314 1043.41 126.149 1043.36 131.04C1043.36 139.88 1040.22 147.67 1033.96 154.41C1027.69 161.15 1020.51 164.52 1012.44 164.52C1007.12 164.52 1002.71 163.65 999.21 161.91C995.529 160.036 992.229 157.493 989.48 154.41L966.21 128.95L908.51 192.07C907.516 193.119 906.756 194.366 906.28 195.73C905.855 197.024 905.642 198.378 905.65 199.74C905.65 202.76 906.55 205.26 908.35 207.24C909.21 208.202 910.269 208.964 911.454 209.476C912.638 209.987 913.92 210.234 915.21 210.2C916.48 210.2 917.71 209.86 918.87 209.16C919.994 208.5 921.015 207.677 921.9 206.72L965.9 158.59L979.28 173.24L935.61 221.01C934.587 222.106 933.824 223.418 933.38 224.85C932.95 226.25 932.74 227.64 932.74 229.04C932.74 231.82 933.7 234.27 935.61 236.36C936.431 237.339 937.456 238.128 938.613 238.67C939.77 239.213 941.032 239.496 942.31 239.5C943.58 239.5 944.81 239.2 945.97 238.62C947.111 238.061 948.139 237.295 949 236.36L993 188.23L1006.38 202.88L962.71 250.66C961.86 251.59 961.17 252.81 960.63 254.32C960.117 255.717 959.847 257.192 959.83 258.68C959.83 261.47 960.79 263.91 962.71 266C963.921 267.45 965.568 268.471 967.405 268.91C969.243 269.35 971.173 269.185 972.91 268.44C974.131 267.857 975.217 267.026 976.1 266L1020.09 217.88L1033.48 232.52L989.48 280.65C988.458 281.743 987.696 283.052 987.25 284.48C986.83 285.88 986.62 287.16 986.62 288.32C986.62 291.57 987.47 294.13 989.17 295.99C990.87 297.85 993.2 298.78 996.17 298.78H996.18ZM996.18 319.7C989.17 319.7 982.9 316.86 977.38 311.16C971.85 305.46 968.55 298.43 967.48 290.06C960.477 289.013 954.057 285.563 949.32 280.3C944.43 274.95 941.45 268.32 940.39 260.42C933.39 259.378 927 255.849 922.39 250.48C917.59 245.02 914.68 238.45 913.61 230.78C906.068 229.789 899.152 226.067 894.17 220.32C889.07 214.51 886.52 207.53 886.52 199.39C886.52 195.44 887.21 191.49 888.59 187.54C889.926 183.665 892.043 180.105 894.81 177.08L966.21 98.96L1001.28 137.32C1002.87 139.092 1004.76 140.568 1006.86 141.68C1008.67 142.673 1010.7 143.211 1012.76 143.25C1015.52 143.25 1018.12 141.91 1020.57 139.24C1023.01 136.57 1024.23 133.72 1024.23 130.7C1024.23 129.3 1023.86 127.73 1023.12 125.99C1022.2 123.999 1020.96 122.174 1019.45 120.59L973.86 70.72C971.267 67.8852 968.117 65.6163 964.607 64.0556C961.096 62.4949 957.301 61.6759 953.46 61.65C949.667 61.6861 945.923 62.5112 942.466 64.0726C939.009 65.6341 935.914 67.8979 933.38 70.72L884.92 123.72C882.134 126.663 880.015 130.173 878.71 134.01C877.486 137.91 876.787 141.956 876.63 146.04C876.43 150.69 877.22 155.16 879.03 159.47C880.83 163.77 883.01 167.66 885.56 171.15L871.86 186.15C867.6 181.03 864.15 174.87 861.49 167.66C858.867 160.632 857.519 153.192 857.51 145.69C857.51 138.72 858.73 132.03 861.17 125.64C863.525 119.398 867.044 113.659 871.54 108.73L919.67 56.07C924.071 51.1515 929.518 47.2803 935.61 44.74C941.365 42.3302 947.54 41.0829 953.78 41.07C959.94 41.07 965.95 42.29 971.79 44.74C977.818 47.3113 983.206 51.1798 987.57 56.07L993.31 62.35L999.05 56.07C1003.45 51.1449 1008.89 47.2725 1014.99 44.74C1020.75 42.3353 1026.92 41.0882 1033.16 41.07C1039.35 41.0775 1045.47 42.3254 1051.17 44.74C1057.2 47.3139 1062.58 51.182 1066.95 56.07L1124.01 118.49C1128.65 123.541 1132.22 129.472 1134.53 135.93C1136.84 142.299 1138.03 149.023 1138.04 155.8C1138.04 162.522 1136.85 169.192 1134.53 175.5C1132.2 181.894 1128.62 187.763 1124.01 192.77L1016.58 310.29C1013.94 313.217 1010.75 315.587 1007.18 317.26C1003.74 318.872 999.981 319.705 996.18 319.7Z" fill="url(#paint3_linear_1000_10539)"/>
<g filter="url(#filter2_f_1000_10539)">
<path d="M1215.79 510.21C1216.85 510.21 1218.07 509.93 1219.45 509.34C1220.72 508.838 1221.86 508.067 1222.8 507.08L1330.23 389.21C1332.96 386.226 1335.08 382.728 1336.45 378.92C1337.81 375.177 1338.51 371.224 1338.52 367.24C1338.52 363.29 1337.83 359.34 1336.45 355.38C1335.11 351.507 1332.99 347.948 1330.23 344.92L1272.85 282.15C1270.2 279.206 1266.93 276.884 1263.28 275.35C1259.86 273.877 1256.18 273.105 1252.45 273.08C1248.66 273.118 1244.91 273.944 1241.45 275.506C1237.99 277.067 1234.9 279.33 1232.36 282.15L1226.62 288.43L1252.45 317.03C1255.34 320.495 1257.81 324.299 1259.78 328.36C1261.9 332.66 1262.97 337.36 1262.97 342.48C1262.97 351.31 1259.83 359.1 1253.56 365.84C1247.29 372.59 1240.12 375.96 1232.04 375.96C1226.73 375.96 1222.32 375.09 1218.81 373.34C1215.13 371.461 1211.84 368.919 1209.09 365.84L1185.82 340.39L1128.12 403.51C1127.13 404.558 1126.37 405.806 1125.89 407.17C1125.46 408.46 1125.24 409.811 1125.25 411.17C1125.25 414.2 1126.15 416.7 1127.96 418.67C1128.82 419.632 1129.88 420.396 1131.06 420.909C1132.24 421.422 1133.52 421.671 1134.81 421.64C1136.09 421.64 1137.31 421.29 1138.48 420.59C1139.6 419.93 1140.62 419.107 1141.51 418.15L1185.5 370.03L1198.89 384.68L1155.22 432.45C1154.19 433.543 1153.43 434.856 1152.99 436.29C1152.56 437.69 1152.35 439.08 1152.35 440.47C1152.35 443.27 1153.3 445.7 1155.22 447.79C1157.13 449.89 1159.36 450.93 1161.91 450.93C1163.19 450.93 1164.41 450.64 1165.58 450.06C1166.72 449.499 1167.75 448.729 1168.61 447.79L1212.6 399.67L1225.99 414.32L1182.31 462.09C1181.46 463.02 1180.77 464.24 1180.24 465.75C1179.71 467.26 1179.44 468.72 1179.44 470.11C1179.44 472.91 1180.4 475.34 1182.31 477.43C1184.23 479.53 1186.46 480.57 1189.01 480.57C1190.28 480.57 1191.45 480.34 1192.51 479.87C1193.73 479.289 1194.82 478.458 1195.7 477.43L1239.69 429.31L1253.08 443.96L1209.09 492.08C1208.07 493.178 1207.31 494.49 1206.86 495.92C1206.46 497.158 1206.24 498.449 1206.22 499.75C1206.22 503.01 1207.07 505.57 1208.77 507.43C1210.47 509.29 1212.81 510.21 1215.79 510.21ZM1215.79 531.14C1208.77 531.14 1202.5 528.29 1196.98 522.6C1191.45 516.9 1188.16 509.87 1187.1 501.5C1180.09 500.455 1173.66 497 1168.92 491.73C1164.04 486.39 1161.06 479.76 1160 471.86C1153 470.821 1146.6 467.292 1141.99 461.92C1137.21 456.45 1134.28 449.89 1133.22 442.22C1125.67 441.224 1118.76 437.499 1113.77 431.75C1108.67 425.95 1106.12 418.97 1106.12 410.83C1106.12 406.88 1106.81 402.93 1108.2 398.97C1109.53 395.096 1111.65 391.536 1114.41 388.51L1185.82 310.4L1220.89 348.76C1222.48 350.532 1224.37 352.009 1226.47 353.12C1228.28 354.109 1230.3 354.644 1232.36 354.68C1235.13 354.68 1237.73 353.35 1240.17 350.68C1242.62 348 1243.84 345.15 1243.84 342.13C1243.79 340.504 1243.41 338.905 1242.72 337.43C1241.81 335.434 1240.58 333.605 1239.06 332.02L1193.47 282.15C1190.88 279.317 1187.73 277.049 1184.22 275.489C1180.71 273.928 1176.91 273.108 1173.07 273.08C1169.28 273.112 1165.53 273.935 1162.07 275.497C1158.62 277.058 1155.52 279.325 1152.99 282.15L1104.53 335.15C1101.74 338.095 1099.62 341.608 1098.31 345.45C1097.09 349.351 1096.4 353.396 1096.24 357.48C1096.03 362.12 1096.83 366.6 1098.63 370.9C1100.44 375.2 1102.62 379.1 1105.17 382.58L1091.46 397.58C1087.21 392.46 1083.76 386.3 1081.1 379.1C1078.47 372.073 1077.12 364.633 1077.11 357.13C1077.11 350.15 1078.34 343.47 1080.78 337.07C1083.13 330.832 1086.65 325.097 1091.14 320.17L1139.28 267.5C1143.68 262.58 1149.13 258.709 1155.22 256.17C1161.17 253.73 1167.22 252.51 1173.39 252.51C1179.55 252.51 1185.55 253.73 1191.4 256.17C1197.43 258.744 1202.81 262.612 1207.18 267.5L1212.92 273.78L1218.66 267.51C1223.06 262.587 1228.5 258.712 1234.59 256.17C1240.35 253.769 1246.52 252.525 1252.76 252.51C1258.93 252.51 1264.93 253.73 1270.78 256.17C1276.81 258.744 1282.19 262.612 1286.56 267.5L1343.62 329.93C1348.25 334.981 1351.83 340.907 1354.14 347.36C1356.46 353.732 1357.64 360.46 1357.65 367.24C1357.65 373.962 1356.46 380.632 1354.14 386.94C1351.8 393.328 1348.23 399.193 1343.62 404.2L1236.19 521.72C1233.55 524.653 1230.35 527.026 1226.78 528.7C1223.34 530.312 1219.59 531.146 1215.79 531.14Z" fill="url(#paint4_linear_1000_10539)"/>
</g>
<path d="M1215.79 510.21C1216.85 510.21 1218.07 509.93 1219.45 509.34C1220.72 508.838 1221.86 508.067 1222.8 507.08L1330.23 389.21C1332.96 386.226 1335.08 382.728 1336.45 378.92C1337.81 375.177 1338.51 371.224 1338.52 367.24C1338.52 363.29 1337.83 359.34 1336.45 355.38C1335.11 351.507 1332.99 347.948 1330.23 344.92L1272.85 282.15C1270.2 279.206 1266.93 276.884 1263.28 275.35C1259.86 273.877 1256.18 273.105 1252.45 273.08C1248.66 273.118 1244.91 273.944 1241.45 275.506C1237.99 277.067 1234.9 279.33 1232.36 282.15L1226.62 288.43L1252.45 317.03C1255.34 320.495 1257.81 324.299 1259.78 328.36C1261.9 332.66 1262.97 337.36 1262.97 342.48C1262.97 351.31 1259.83 359.1 1253.56 365.84C1247.29 372.59 1240.12 375.96 1232.04 375.96C1226.73 375.96 1222.32 375.09 1218.81 373.34C1215.13 371.461 1211.84 368.919 1209.09 365.84L1185.82 340.39L1128.12 403.51C1127.13 404.558 1126.37 405.806 1125.89 407.17C1125.46 408.46 1125.24 409.811 1125.25 411.17C1125.25 414.2 1126.15 416.7 1127.96 418.67C1128.82 419.632 1129.88 420.396 1131.06 420.909C1132.24 421.422 1133.52 421.671 1134.81 421.64C1136.09 421.64 1137.31 421.29 1138.48 420.59C1139.6 419.93 1140.62 419.107 1141.51 418.15L1185.5 370.03L1198.89 384.68L1155.22 432.45C1154.19 433.543 1153.43 434.856 1152.99 436.29C1152.56 437.69 1152.35 439.08 1152.35 440.47C1152.35 443.27 1153.3 445.7 1155.22 447.79C1157.13 449.89 1159.36 450.93 1161.91 450.93C1163.19 450.93 1164.41 450.64 1165.58 450.06C1166.72 449.499 1167.75 448.729 1168.61 447.79L1212.6 399.67L1225.99 414.32L1182.31 462.09C1181.46 463.02 1180.77 464.24 1180.24 465.75C1179.71 467.26 1179.44 468.72 1179.44 470.11C1179.44 472.91 1180.4 475.34 1182.31 477.43C1184.23 479.53 1186.46 480.57 1189.01 480.57C1190.28 480.57 1191.45 480.34 1192.51 479.87C1193.73 479.289 1194.82 478.458 1195.7 477.43L1239.69 429.31L1253.08 443.96L1209.09 492.08C1208.07 493.178 1207.31 494.49 1206.86 495.92C1206.46 497.158 1206.24 498.449 1206.22 499.75C1206.22 503.01 1207.07 505.57 1208.77 507.43C1210.47 509.29 1212.81 510.21 1215.79 510.21ZM1215.79 531.14C1208.77 531.14 1202.5 528.29 1196.98 522.6C1191.45 516.9 1188.16 509.87 1187.1 501.5C1180.09 500.455 1173.66 497 1168.92 491.73C1164.04 486.39 1161.06 479.76 1160 471.86C1153 470.821 1146.6 467.292 1141.99 461.92C1137.21 456.45 1134.28 449.89 1133.22 442.22C1125.67 441.224 1118.76 437.499 1113.77 431.75C1108.67 425.95 1106.12 418.97 1106.12 410.83C1106.12 406.88 1106.81 402.93 1108.2 398.97C1109.53 395.096 1111.65 391.536 1114.41 388.51L1185.82 310.4L1220.89 348.76C1222.48 350.532 1224.37 352.009 1226.47 353.12C1228.28 354.109 1230.3 354.644 1232.36 354.68C1235.13 354.68 1237.73 353.35 1240.17 350.68C1242.62 348 1243.84 345.15 1243.84 342.13C1243.79 340.504 1243.41 338.905 1242.72 337.43C1241.81 335.434 1240.58 333.605 1239.06 332.02L1193.47 282.15C1190.88 279.317 1187.73 277.049 1184.22 275.489C1180.71 273.928 1176.91 273.108 1173.07 273.08C1169.28 273.112 1165.53 273.935 1162.07 275.497C1158.62 277.058 1155.52 279.325 1152.99 282.15L1104.53 335.15C1101.74 338.095 1099.62 341.608 1098.31 345.45C1097.09 349.351 1096.4 353.396 1096.24 357.48C1096.03 362.12 1096.83 366.6 1098.63 370.9C1100.44 375.2 1102.62 379.1 1105.17 382.58L1091.46 397.58C1087.21 392.46 1083.76 386.3 1081.1 379.1C1078.47 372.073 1077.12 364.633 1077.11 357.13C1077.11 350.15 1078.34 343.47 1080.78 337.07C1083.13 330.832 1086.65 325.097 1091.14 320.17L1139.28 267.5C1143.68 262.58 1149.13 258.709 1155.22 256.17C1161.17 253.73 1167.22 252.51 1173.39 252.51C1179.55 252.51 1185.55 253.73 1191.4 256.17C1197.43 258.744 1202.81 262.612 1207.18 267.5L1212.92 273.78L1218.66 267.51C1223.06 262.587 1228.5 258.712 1234.59 256.17C1240.35 253.769 1246.52 252.525 1252.76 252.51C1258.93 252.51 1264.93 253.73 1270.78 256.17C1276.81 258.744 1282.19 262.612 1286.56 267.5L1343.62 329.93C1348.25 334.981 1351.83 340.907 1354.14 347.36C1356.46 353.732 1357.64 360.46 1357.65 367.24C1357.65 373.962 1356.46 380.632 1354.14 386.94C1351.8 393.328 1348.23 399.193 1343.62 404.2L1236.19 521.72C1233.55 524.653 1230.35 527.026 1226.78 528.7C1223.34 530.312 1219.59 531.146 1215.79 531.14Z" fill="url(#paint5_linear_1000_10539)"/>
<g filter="url(#filter3_f_1000_10539)">
<path d="M1293.48 189.95C1294.54 189.95 1295.76 189.66 1297.14 189.08C1298.41 188.576 1299.55 187.801 1300.49 186.81L1407.92 68.95C1410.66 65.9633 1412.77 62.462 1414.14 58.65C1415.5 54.9097 1416.2 50.9607 1416.21 46.98C1416.21 43.02 1415.52 39.08 1414.14 35.12C1412.8 31.2471 1410.68 27.6881 1407.92 24.66L1350.54 -38.11C1347.89 -41.0541 1344.62 -43.3761 1340.97 -44.91C1337.55 -46.3834 1333.87 -47.1553 1330.14 -47.18C1326.35 -47.1416 1322.6 -46.3156 1319.14 -44.7543C1315.68 -43.193 1312.59 -40.9305 1310.05 -38.11L1304.31 -31.83L1330.14 -3.23C1333.03 0.231345 1335.5 4.03273 1337.47 8.09C1339.62 12.4885 1340.71 17.3262 1340.66 22.22C1340.66 31.05 1337.52 38.84 1331.25 45.58C1324.98 52.32 1317.81 55.69 1309.73 55.69C1304.42 55.69 1300.01 54.82 1296.5 53.08C1292.82 51.2015 1289.53 48.6586 1286.78 45.58L1263.51 20.13L1205.81 83.24C1204.81 84.291 1204.05 85.5421 1203.58 86.91C1203.15 88.1997 1202.93 89.5507 1202.94 90.91C1202.94 93.94 1203.84 96.44 1205.65 98.41C1206.51 99.3721 1207.57 100.136 1208.75 100.649C1209.93 101.162 1211.21 101.411 1212.5 101.38C1213.78 101.38 1215 101.03 1216.17 100.33C1217.34 99.63 1218.35 98.82 1219.2 97.89L1263.19 49.77L1276.58 64.41L1232.91 112.19C1231.88 113.279 1231.12 114.59 1230.68 116.02C1230.25 117.42 1230.04 118.82 1230.04 120.21C1230.04 123 1230.99 125.44 1232.91 127.53C1234.82 129.63 1237.05 130.67 1239.6 130.67C1240.88 130.67 1242.1 130.37 1243.27 129.8C1244.41 129.239 1245.44 128.469 1246.3 127.53L1290.29 79.41L1303.68 94.05L1260 141.83C1259.07 142.898 1258.37 144.143 1257.93 145.49C1257.4 147 1257.13 148.46 1257.13 149.85C1257.13 152.64 1258.09 155.08 1260 157.17C1261.92 159.27 1264.15 160.31 1266.7 160.31C1267.97 160.31 1269.14 160.08 1270.2 159.61C1271.42 159.029 1272.51 158.198 1273.39 157.17L1317.38 109.05L1330.77 123.69L1286.78 171.82C1285.76 172.915 1284.99 174.228 1284.55 175.66C1284.15 176.898 1283.93 178.189 1283.91 179.49C1283.91 182.75 1284.76 185.3 1286.46 187.16C1288.16 189.02 1290.5 189.96 1293.48 189.96V189.95ZM1293.48 210.88C1286.46 210.88 1280.19 208.03 1274.67 202.33C1269.14 196.63 1265.85 189.6 1264.79 181.23C1257.78 180.187 1251.35 176.736 1246.61 171.47C1241.73 166.12 1238.75 159.5 1237.69 151.59C1230.69 150.552 1224.29 147.023 1219.68 141.65C1214.9 136.19 1211.97 129.62 1210.91 121.95C1203.37 120.957 1196.45 117.236 1191.46 111.49C1186.36 105.68 1183.81 98.7 1183.81 90.57C1183.81 86.61 1184.5 82.67 1185.89 78.71C1187.22 74.8358 1189.34 71.276 1192.1 68.25L1263.51 -9.87L1298.58 28.49C1300.17 30.2624 1302.06 31.7387 1304.16 32.85C1305.97 33.8426 1307.99 34.3814 1310.05 34.42C1312.82 34.42 1315.42 33.09 1317.86 30.42C1320.31 27.74 1321.53 24.89 1321.53 21.87C1321.53 20.47 1321.16 18.9 1320.41 17.17C1319.5 15.1737 1318.27 13.3447 1316.75 11.76L1271.16 -38.11C1268.57 -40.9429 1265.42 -43.2105 1261.91 -44.7711C1258.4 -46.3317 1254.6 -47.1517 1250.76 -47.18C1246.97 -47.1482 1243.22 -46.3251 1239.76 -44.7633C1236.31 -43.2015 1233.21 -40.9355 1230.68 -38.11L1182.22 14.89C1179.43 17.8347 1177.31 21.3484 1176 25.19C1174.78 29.0869 1174.08 33.1292 1173.93 37.21C1173.72 41.86 1174.52 46.34 1176.32 50.64C1178.13 54.94 1180.31 58.84 1182.86 62.32L1169.15 77.32C1164.9 72.2 1161.45 66.04 1158.79 58.83C1156.16 51.8027 1154.81 44.3625 1154.8 36.86C1154.78 30.008 1156.03 23.2113 1158.47 16.81C1160.82 10.5682 1164.34 4.82983 1168.83 -0.0999985L1216.97 -52.76C1221.37 -57.6795 1226.82 -61.5509 1232.91 -64.09C1238.86 -66.53 1244.91 -67.75 1251.08 -67.75C1257.24 -67.75 1263.24 -66.53 1269.09 -64.09C1275.12 -61.5161 1280.5 -57.648 1284.87 -52.76L1290.61 -46.48L1296.34 -52.76C1300.74 -57.6775 1306.19 -61.5485 1312.28 -64.09C1318.04 -66.4913 1324.21 -67.735 1330.45 -67.75C1336.62 -67.75 1342.62 -66.53 1348.47 -64.09C1354.5 -61.5161 1359.88 -57.648 1364.25 -52.76L1421.31 9.66C1425.94 14.7136 1429.52 20.6433 1431.83 27.1C1434.14 33.473 1435.33 40.2003 1435.33 46.98C1435.34 53.7018 1434.15 60.3716 1431.83 66.68C1429.49 73.0683 1425.92 78.9333 1421.31 83.94L1313.88 201.46C1311.24 204.39 1308.04 206.76 1304.47 208.43C1301.03 210.046 1297.28 210.882 1293.48 210.88Z" fill="url(#paint6_linear_1000_10539)"/>
</g>
<path d="M1293.48 189.95C1294.54 189.95 1295.76 189.66 1297.14 189.08C1298.41 188.576 1299.55 187.801 1300.49 186.81L1407.92 68.95C1410.66 65.9633 1412.77 62.462 1414.14 58.65C1415.5 54.9097 1416.2 50.9607 1416.21 46.98C1416.21 43.02 1415.52 39.08 1414.14 35.12C1412.8 31.2471 1410.68 27.6881 1407.92 24.66L1350.54 -38.11C1347.89 -41.0541 1344.62 -43.3761 1340.97 -44.91C1337.55 -46.3834 1333.87 -47.1553 1330.14 -47.18C1326.35 -47.1416 1322.6 -46.3156 1319.14 -44.7543C1315.68 -43.193 1312.59 -40.9305 1310.05 -38.11L1304.31 -31.83L1330.14 -3.23C1333.03 0.231345 1335.5 4.03273 1337.47 8.09C1339.62 12.4885 1340.71 17.3262 1340.66 22.22C1340.66 31.05 1337.52 38.84 1331.25 45.58C1324.98 52.32 1317.81 55.69 1309.73 55.69C1304.42 55.69 1300.01 54.82 1296.5 53.08C1292.82 51.2015 1289.53 48.6586 1286.78 45.58L1263.51 20.13L1205.81 83.24C1204.81 84.291 1204.05 85.5421 1203.58 86.91C1203.15 88.1997 1202.93 89.5507 1202.94 90.91C1202.94 93.94 1203.84 96.44 1205.65 98.41C1206.51 99.3721 1207.57 100.136 1208.75 100.649C1209.93 101.162 1211.21 101.411 1212.5 101.38C1213.78 101.38 1215 101.03 1216.17 100.33C1217.34 99.63 1218.35 98.82 1219.2 97.89L1263.19 49.77L1276.58 64.41L1232.91 112.19C1231.88 113.279 1231.12 114.59 1230.68 116.02C1230.25 117.42 1230.04 118.82 1230.04 120.21C1230.04 123 1230.99 125.44 1232.91 127.53C1234.82 129.63 1237.05 130.67 1239.6 130.67C1240.88 130.67 1242.1 130.37 1243.27 129.8C1244.41 129.239 1245.44 128.469 1246.3 127.53L1290.29 79.41L1303.68 94.05L1260 141.83C1259.07 142.898 1258.37 144.143 1257.93 145.49C1257.4 147 1257.13 148.46 1257.13 149.85C1257.13 152.64 1258.09 155.08 1260 157.17C1261.92 159.27 1264.15 160.31 1266.7 160.31C1267.97 160.31 1269.14 160.08 1270.2 159.61C1271.42 159.029 1272.51 158.198 1273.39 157.17L1317.38 109.05L1330.77 123.69L1286.78 171.82C1285.76 172.915 1284.99 174.228 1284.55 175.66C1284.15 176.898 1283.93 178.189 1283.91 179.49C1283.91 182.75 1284.76 185.3 1286.46 187.16C1288.16 189.02 1290.5 189.96 1293.48 189.96V189.95ZM1293.48 210.88C1286.46 210.88 1280.19 208.03 1274.67 202.33C1269.14 196.63 1265.85 189.6 1264.79 181.23C1257.78 180.187 1251.35 176.736 1246.61 171.47C1241.73 166.12 1238.75 159.5 1237.69 151.59C1230.69 150.552 1224.29 147.023 1219.68 141.65C1214.9 136.19 1211.97 129.62 1210.91 121.95C1203.37 120.957 1196.45 117.236 1191.46 111.49C1186.36 105.68 1183.81 98.7 1183.81 90.57C1183.81 86.61 1184.5 82.67 1185.89 78.71C1187.22 74.8358 1189.34 71.276 1192.1 68.25L1263.51 -9.87L1298.58 28.49C1300.17 30.2624 1302.06 31.7387 1304.16 32.85C1305.97 33.8426 1307.99 34.3814 1310.05 34.42C1312.82 34.42 1315.42 33.09 1317.86 30.42C1320.31 27.74 1321.53 24.89 1321.53 21.87C1321.53 20.47 1321.16 18.9 1320.41 17.17C1319.5 15.1737 1318.27 13.3447 1316.75 11.76L1271.16 -38.11C1268.57 -40.9429 1265.42 -43.2105 1261.91 -44.7711C1258.4 -46.3317 1254.6 -47.1517 1250.76 -47.18C1246.97 -47.1482 1243.22 -46.3251 1239.76 -44.7633C1236.31 -43.2015 1233.21 -40.9355 1230.68 -38.11L1182.22 14.89C1179.43 17.8347 1177.31 21.3484 1176 25.19C1174.78 29.0869 1174.08 33.1292 1173.93 37.21C1173.72 41.86 1174.52 46.34 1176.32 50.64C1178.13 54.94 1180.31 58.84 1182.86 62.32L1169.15 77.32C1164.9 72.2 1161.45 66.04 1158.79 58.83C1156.16 51.8027 1154.81 44.3625 1154.8 36.86C1154.78 30.008 1156.03 23.2113 1158.47 16.81C1160.82 10.5682 1164.34 4.82983 1168.83 -0.0999985L1216.97 -52.76C1221.37 -57.6795 1226.82 -61.5509 1232.91 -64.09C1238.86 -66.53 1244.91 -67.75 1251.08 -67.75C1257.24 -67.75 1263.24 -66.53 1269.09 -64.09C1275.12 -61.5161 1280.5 -57.648 1284.87 -52.76L1290.61 -46.48L1296.34 -52.76C1300.74 -57.6775 1306.19 -61.5485 1312.28 -64.09C1318.04 -66.4913 1324.21 -67.735 1330.45 -67.75C1336.62 -67.75 1342.62 -66.53 1348.47 -64.09C1354.5 -61.5161 1359.88 -57.648 1364.25 -52.76L1421.31 9.66C1425.94 14.7136 1429.52 20.6433 1431.83 27.1C1434.14 33.473 1435.33 40.2003 1435.33 46.98C1435.34 53.7018 1434.15 60.3716 1431.83 66.68C1429.49 73.0683 1425.92 78.9333 1421.31 83.94L1313.88 201.46C1311.24 204.39 1308.04 206.76 1304.47 208.43C1301.03 210.046 1297.28 210.882 1293.48 210.88Z" fill="url(#paint7_linear_1000_10539)"/>
</g>
</g>
<defs>
<filter id="filter0_f_1000_10539" x="622.77" y="224.53" width="336.49" height="334.59" filterUnits="userSpaceOnUse" color-interpolation-filters="sRGB">
<feFlood flood-opacity="0" result="BackgroundImageFix"/>
<feBlend mode="normal" in="SourceGraphic" in2="BackgroundImageFix" result="shape"/>
<feGaussianBlur stdDeviation="13.99" result="effect1_foregroundBlur_1000_10539"/>
</filter>
<filter id="filter1_f_1000_10539" x="829.53" y="13.09" width="336.49" height="334.59" filterUnits="userSpaceOnUse" color-interpolation-filters="sRGB">
<feFlood flood-opacity="0" result="BackgroundImageFix"/>
<feBlend mode="normal" in="SourceGraphic" in2="BackgroundImageFix" result="shape"/>
<feGaussianBlur stdDeviation="13.99" result="effect1_foregroundBlur_1000_10539"/>
</filter>
<filter id="filter2_f_1000_10539" x="1049.13" y="224.53" width="336.5" height="334.59" filterUnits="userSpaceOnUse" color-interpolation-filters="sRGB">
<feFlood flood-opacity="0" result="BackgroundImageFix"/>
<feBlend mode="normal" in="SourceGraphic" in2="BackgroundImageFix" result="shape"/>
<feGaussianBlur stdDeviation="13.99" result="effect1_foregroundBlur_1000_10539"/>
</filter>
<filter id="filter3_f_1000_10539" x="1126.82" y="-95.73" width="336.49" height="334.59" filterUnits="userSpaceOnUse" color-interpolation-filters="sRGB">
<feFlood flood-opacity="0" result="BackgroundImageFix"/>
<feBlend mode="normal" in="SourceGraphic" in2="BackgroundImageFix" result="shape"/>
<feGaussianBlur stdDeviation="13.99" result="effect1_foregroundBlur_1000_10539"/>
</filter>
<linearGradient id="paint0_linear_1000_10539" x1="791.02" y1="252.51" x2="791.02" y2="531.14" gradientUnits="userSpaceOnUse">
<stop stop-color="#BFDDF6"/>
<stop offset="1" stop-color="#2E679E"/>
</linearGradient>
<linearGradient id="paint1_linear_1000_10539" x1="791.02" y1="252.51" x2="791.02" y2="531.14" gradientUnits="userSpaceOnUse">
<stop stop-color="#BFDDF6"/>
<stop offset="1" stop-color="#2E679E"/>
</linearGradient>
<linearGradient id="paint2_linear_1000_10539" x1="997.78" y1="41.07" x2="997.78" y2="319.7" gradientUnits="userSpaceOnUse">
<stop stop-color="#BFDDF6"/>
<stop offset="1" stop-color="#2E679E"/>
</linearGradient>
<linearGradient id="paint3_linear_1000_10539" x1="997.78" y1="41.07" x2="997.78" y2="319.7" gradientUnits="userSpaceOnUse">
<stop stop-color="#BFDDF6"/>
<stop offset="1" stop-color="#2E679E"/>
</linearGradient>
<linearGradient id="paint4_linear_1000_10539" x1="1217.38" y1="252.51" x2="1217.38" y2="531.14" gradientUnits="userSpaceOnUse">
<stop stop-color="#BFDDF6"/>
<stop offset="1" stop-color="#2E679E"/>
</linearGradient>
<linearGradient id="paint5_linear_1000_10539" x1="1217.38" y1="252.51" x2="1217.38" y2="531.14" gradientUnits="userSpaceOnUse">
<stop stop-color="#BFDDF6"/>
<stop offset="1" stop-color="#2E679E"/>
</linearGradient>
<linearGradient id="paint6_linear_1000_10539" x1="1295.07" y1="-67.75" x2="1295.07" y2="210.88" gradientUnits="userSpaceOnUse">
<stop stop-color="#BFDDF6"/>
<stop offset="1" stop-color="#2E679E"/>
</linearGradient>
<linearGradient id="paint7_linear_1000_10539" x1="1295.07" y1="-67.75" x2="1295.07" y2="210.88" gradientUnits="userSpaceOnUse">
<stop stop-color="#BFDDF6"/>
<stop offset="1" stop-color="#2E679E"/>
</linearGradient>
<clipPath id="clip0_1000_10539">
<rect width="1276" height="350" fill="white"/>
</clipPath>
</defs>
</svg>
